<?xml version="1.0" encoding="UTF-8"?>
<svg version="1.1" xmlns="http://www.w3.org/2000/svg" width="977" height="977">
<path d="M0 0 C1.66010353 -0.00855011 1.66010353 -0.00855011 3.35374451 -0.01727295 C5.69439757 -0.02668385 8.03506364 -0.0332413 10.37573242 -0.03710938 C13.87118361 -0.0467037 17.36601735 -0.07771861 20.86132812 -0.109375 C79.67145656 -0.3870415 146.69277429 18.550486 192.28515625 57.140625 C194.35789859 58.47821473 194.35789859 58.47821473 196.77734375 57.64453125 C199.75979446 55.98711512 202.47810336 54.13738143 205.24609375 52.140625 C245.20499498 23.96010186 292.00989461 7.23999093 340.37109375 1.203125 C341.02572601 1.11579605 341.68035828 1.0284671 342.35482788 0.93849182 C348.57637245 0.16375865 354.73515215 0.02566078 361 0 C362.66010353 -0.00855011 362.66010353 -0.00855011 364.35374451 -0.01727295 C366.69439757 -0.02668385 369.03506364 -0.0332413 371.37573242 -0.03710938 C374.87118361 -0.0467037 378.36601735 -0.07771861 381.86132812 -0.109375 C445.86474396 -0.41156112 510.31508167 22.28726525 560.37109375 62.203125 C561.36109375 62.98171875 562.35109375 63.7603125 563.37109375 64.5625 C580.73492295 78.47329498 597.9657082 94.40458875 611.37109375 112.203125 C612.29471638 113.38738727 613.21926513 114.57092759 614.14453125 115.75390625 C641.76268348 151.40618481 660.37591742 192.97302862 669.68359375 237.015625 C669.92625977 238.15870117 670.16892578 239.30177734 670.41894531 240.47949219 C674.04008664 258.47251835 674.77877392 276.19673796 674.74609375 294.515625 C674.74527802 296.23732407 674.74527802 296.23732407 674.7444458 297.99380493 C674.70584003 315.7319198 673.98162583 332.78680359 670.37109375 350.203125 C670.16210449 351.24710449 669.95311523 352.29108398 669.73779297 353.36669922 C665.01674706 376.37074686 657.76197769 399.1197411 647.37109375 420.203125 C646.91250977 421.14333496 646.45392578 422.08354492 645.98144531 423.05224609 C636.10824995 443.13413375 624.51527252 461.84538882 610.37109375 479.203125 C609.55511719 480.22277344 608.73914063 481.24242187 607.8984375 482.29296875 C601.33892358 490.31243718 594.10771962 497.67615626 586.80859375 505.015625 C586.32580963 505.50367615 585.84302551 505.99172729 585.34561157 506.49456787 C578.70379539 513.19233739 571.78331979 519.36442755 564.37109375 525.203125 C563.46025024 525.93341919 563.46025024 525.93341919 562.53100586 526.6784668 C524.64584681 556.96392617 479.94494226 576.21933831 432.62109375 585.953125 C431.18636719 586.25138184 431.18636719 586.25138184 429.72265625 586.55566406 C413.05954659 589.82877489 396.63204829 590.55132889 379.6875 590.51879883 C376.27180719 590.51564871 372.85699225 590.53915795 369.44140625 590.56445312 C309.45208097 590.73726999 245.61956286 570.90558679 198.44921875 533.15234375 C196.36724812 531.94305842 196.36724812 531.94305842 193.97265625 532.78125 C190.97532824 534.41942927 188.26710738 536.26668769 185.49609375 538.265625 C136.82346295 572.59139864 77.67014175 590.93120235 18.23486328 590.59423828 C14.8723091 590.57813082 11.51095622 590.59421769 8.1484375 590.61328125 C-49.55801405 590.66951485 -107.20608459 572.02669553 -154.62890625 539.203125 C-155.24266113 538.78466309 -155.85641602 538.36620117 -156.48876953 537.93505859 C-165.33848659 531.88818448 -173.60152031 525.30626546 -181.62890625 518.203125 C-182.37519287 517.54441406 -183.12147949 516.88570312 -183.89038086 516.20703125 C-196.98990092 504.54141041 -210.07976588 492.26864549 -220.62890625 478.203125 C-221.55098562 477.01997702 -222.47425521 475.83775608 -223.3984375 474.65625 C-251.45456933 438.44787304 -270.36014175 395.96830322 -279.50390625 351.140625 C-279.79068237 349.73490234 -279.79068237 349.73490234 -280.08325195 348.30078125 C-283.2175888 331.86507575 -283.97732232 315.64532295 -283.94458008 298.94677734 C-283.94143016 295.60350572 -283.96494087 292.26113126 -283.99023438 288.91796875 C-284.04725345 269.74316802 -282.36174081 250.80062057 -278.06640625 232.078125 C-277.81810059 230.98250244 -277.56979492 229.88687988 -277.31396484 228.75805664 C-272.54823442 208.66298478 -265.81103701 188.71198701 -256.62890625 170.203125 C-256.17177246 169.26726562 -255.71463867 168.33140625 -255.24365234 167.3671875 C-245.36935987 147.27998236 -233.77647013 128.56501539 -219.62890625 111.203125 C-218.81292969 110.18347656 -217.99695313 109.16382813 -217.15625 108.11328125 C-210.59673608 100.09381282 -203.36553212 92.73009374 -196.06640625 85.390625 C-195.34223007 84.65854828 -195.34223007 84.65854828 -194.60342407 83.91168213 C-187.96160789 77.21391261 -181.04113229 71.04182245 -173.62890625 65.203125 C-173.02167725 64.71626221 -172.41444824 64.22939941 -171.78881836 63.7277832 C-128.36546712 29.01508374 -75.63076512 8.0254103 -20.62890625 1.203125 C-19.66679985 1.07429932 -19.66679985 1.07429932 -18.68525696 0.94287109 C-12.45063149 0.16387556 -6.27848999 0.02571666 0 0 Z M-35.62890625 33.203125 C-36.72364258 33.41211426 -37.81837891 33.62110352 -38.94628906 33.83642578 C-61.23028981 38.21774257 -83.18939784 45.23706211 -103.62890625 55.203125 C-104.28552246 55.5218457 -104.94213867 55.84056641 -105.61865234 56.16894531 C-128.25099718 67.31019473 -149.24416965 81.96554766 -167.62890625 99.203125 C-168.97765091 100.37605565 -170.33143542 101.5432294 -171.69140625 102.703125 C-179.30291124 109.3515416 -186.13074615 116.54350271 -192.42578125 124.4453125 C-193.84595266 126.2230448 -195.29230797 127.9803219 -196.76953125 129.7109375 C-208.26463807 143.23216027 -217.47961667 158.48034768 -225.62890625 174.203125 C-226.2027002 175.30962402 -226.2027002 175.30962402 -226.78808594 176.43847656 C-243.23475466 208.61674146 -253.92827762 245.9234469 -254.62890625 282.203125 C-254.64937012 283.12109863 -254.66983398 284.03907227 -254.69091797 284.98486328 C-255.89239468 347.96806005 -237.82504062 408.44882792 -198.62890625 458.203125 C-197.85804688 459.18796875 -197.0871875 460.1728125 -196.29296875 461.1875 C-155.03505004 512.72266199 -95.54868057 546.92413391 -30.62890625 558.203125 C-29.29762695 558.44869141 -29.29762695 558.44869141 -27.93945312 558.69921875 C2.34472886 564.12392048 35.23931588 562.96149313 65.37109375 557.203125 C66.31500977 557.03184082 67.25892578 556.86055664 68.23144531 556.68408203 C100.21468297 550.75345317 130.75450352 538.20643319 158.37109375 521.203125 C159.02480957 520.80786621 159.67852539 520.41260742 160.35205078 520.00537109 C165.58245703 516.90625995 165.58245703 516.90625995 170.37109375 513.203125 C170.78766699 509.27201763 170.78766699 509.27201763 168.67797852 507.08764648 C167.89737061 506.34071533 167.1167627 505.59378418 166.3125 504.82421875 C165.45591797 503.99116211 164.59933594 503.15810547 163.71679688 502.29980469 C162.79833984 501.42227539 161.87988281 500.54474609 160.93359375 499.640625 C153.91403433 492.77515347 147.26784576 486.06546101 141.37109375 478.203125 C140.44901438 477.01997702 139.52574479 475.83775608 138.6015625 474.65625 C110.54543067 438.44787304 91.63985825 395.96830322 82.49609375 351.140625 C82.30490967 350.20347656 82.11372559 349.26632812 81.91674805 348.30078125 C78.7824112 331.86507575 78.02267768 315.64532295 78.05541992 298.94677734 C78.05856984 295.60350572 78.03505913 292.26113126 78.00976562 288.91796875 C77.95274655 269.74316802 79.63825919 250.80062057 83.93359375 232.078125 C84.30605225 230.43469116 84.30605225 230.43469116 84.68603516 228.75805664 C89.45176558 208.66298478 96.18896299 188.71198701 105.37109375 170.203125 C105.82822754 169.26726562 106.28536133 168.33140625 106.75634766 167.3671875 C116.62762912 147.28610764 128.21130249 128.5494303 142.37109375 111.203125 C142.80534668 110.6673584 143.23959961 110.1315918 143.68701172 109.57958984 C152.22581985 99.10804185 161.71326715 89.63723146 171.37109375 80.203125 C169.94169617 76.67658206 168.36111971 75.23141309 165.14453125 73.25 C164.28593506 72.71729492 163.42733887 72.18458984 162.54272461 71.63574219 C161.61983643 71.08047852 160.69694824 70.52521484 159.74609375 69.953125 C158.79549072 69.3746582 157.8448877 68.79619141 156.86547852 68.20019531 C149.55600644 63.80357582 142.159632 59.76282558 134.42724609 56.16552734 C132.24711481 55.14509544 130.08544466 54.09020451 127.921875 53.03515625 C106.51154046 42.79398661 83.72435686 36.19728864 60.37109375 32.203125 C59.04634033 31.95973389 59.04634033 31.95973389 57.69482422 31.71142578 C27.48744967 26.29789777 -5.59685857 27.35185265 -35.62890625 33.203125 Z M325.37109375 33.203125 C324.27635742 33.41211426 323.18162109 33.62110352 322.05371094 33.83642578 C299.76971019 38.21774257 277.81060216 45.23706211 257.37109375 55.203125 C256.71447754 55.5218457 256.05786133 55.84056641 255.38134766 56.16894531 C246.37771995 60.60117108 237.78508191 65.64818623 229.30859375 71.015625 C228.42075195 71.56686035 227.53291016 72.1180957 226.61816406 72.68603516 C225.8031543 73.21374512 224.98814453 73.74145508 224.1484375 74.28515625 C223.05390259 74.98475464 223.05390259 74.98475464 221.93725586 75.69848633 C221.42042236 76.19501709 220.90358887 76.69154785 220.37109375 77.203125 C219.95452051 81.13423237 219.95452051 81.13423237 222.06420898 83.31860352 C222.84481689 84.06553467 223.6254248 84.81246582 224.4296875 85.58203125 C225.28626953 86.41508789 226.14285156 87.24814453 227.02539062 88.10644531 C227.94384766 88.98397461 228.86230469 89.86150391 229.80859375 90.765625 C236.82815317 97.63109653 243.47434174 104.34078899 249.37109375 112.203125 C250.29317312 113.38627298 251.21644271 114.56849392 252.140625 115.75 C279.76353254 151.39927108 298.37595895 192.97322513 307.68359375 237.015625 C307.92625977 238.15870117 308.16892578 239.30177734 308.41894531 240.47949219 C312.04008664 258.47251835 312.77877392 276.19673796 312.74609375 294.515625 C312.74554993 295.66342438 312.7450061 296.81122375 312.7444458 297.99380493 C312.70584003 315.7319198 311.98162583 332.78680359 308.37109375 350.203125 C308.16210449 351.24710449 307.95311523 352.29108398 307.73779297 353.36669922 C303.01674706 376.37074686 295.76197769 399.1197411 285.37109375 420.203125 C284.91250977 421.14333496 284.45392578 422.08354492 283.98144531 423.05224609 C274.11126004 443.12801128 262.52749677 461.86097043 248.37109375 479.203125 C247.93684082 479.7388916 247.50258789 480.2746582 247.05517578 480.82666016 C238.51636765 491.29820815 229.02892035 500.76901854 219.37109375 510.203125 C220.73287388 513.45177115 221.99420622 514.92547692 225.01171875 516.71875 C226.11108765 517.38197266 226.11108765 517.38197266 227.23266602 518.05859375 C228.02084717 518.51878906 228.80902832 518.97898437 229.62109375 519.453125 C230.84880493 520.18208984 230.84880493 520.18208984 232.10131836 520.92578125 C233.7593536 521.90755312 235.42006357 522.88482273 237.08349609 523.85742188 C239.00334952 524.98679563 240.90360027 526.13946164 242.796875 527.3125 C269.36817343 543.32807714 299.93210919 552.99707371 330.37109375 558.203125 C331.69584717 558.44651611 331.69584717 558.44651611 333.04736328 558.69482422 C363.33642432 564.12299144 396.23372911 562.9625608 426.37109375 557.203125 C427.31500977 557.03184082 428.25892578 556.86055664 429.23144531 556.68408203 C477.25649321 547.77883179 522.78972222 524.56431243 558.37109375 491.203125 C559.71983841 490.03019435 561.07362292 488.8630206 562.43359375 487.703125 C570.96106276 480.25464186 578.36480658 472.07775541 585.37109375 463.203125 C586.25566957 462.10869485 587.14111915 461.01497047 588.02734375 459.921875 C621.9842551 417.7668122 644.31953821 362.65436305 645.37109375 308.203125 C645.39155762 307.28515137 645.41202148 306.36717773 645.43310547 305.42138672 C646.63458218 242.43818995 628.56722812 181.95742208 589.37109375 132.203125 C588.21480469 130.72585938 588.21480469 130.72585938 587.03515625 129.21875 C568.75669283 106.38716753 547.11032896 86.79833592 522.37109375 71.203125 C521.75766113 70.81527832 521.14422852 70.42743164 520.51220703 70.02783203 C490.20741575 51.01259204 456.59458446 38.32276177 421.37109375 32.203125 C420.48357422 32.03941406 419.59605469 31.87570313 418.68164062 31.70703125 C388.47915818 26.29696408 355.39749866 27.35295205 325.37109375 33.203125 Z M194.37109375 98.203125 C185.0770469 106.4106027 176.35787776 114.70779959 168.609375 124.41015625 C167.17499794 126.19999848 165.71591641 127.97048206 164.2265625 129.71484375 C152.73428535 143.23638786 143.51971473 158.48163764 135.37109375 174.203125 C134.98856445 174.94079102 134.60603516 175.67845703 134.21191406 176.43847656 C117.76524534 208.61674146 107.07172238 245.9234469 106.37109375 282.203125 C106.35062988 283.12109863 106.33016602 284.03907227 106.30908203 284.98486328 C105.10760532 347.96806005 123.17495938 408.44882792 162.37109375 458.203125 C163.14195312 459.18796875 163.9128125 460.1728125 164.70703125 461.1875 C170.57587935 468.51826333 176.92126197 475.38615592 183.37109375 482.203125 C184.15226562 483.0384375 184.9334375 483.87375 185.73828125 484.734375 C186.76308594 485.80171875 186.76308594 485.80171875 187.80859375 486.890625 C188.38480469 487.49261719 188.96101563 488.09460938 189.5546875 488.71484375 C191.6885741 490.46325406 193.77863217 491.30043255 196.37109375 492.203125 C206.6118004 483.15966171 215.88347355 473.92066183 224.37109375 463.203125 C225.25716672 462.10755031 226.1439086 461.01251635 227.03125 459.91796875 C260.98317972 417.75893657 283.3195121 362.6557152 284.37109375 308.203125 C284.39155762 307.28515137 284.41202148 306.36717773 284.43310547 305.42138672 C285.63458218 242.43818995 267.56722812 181.95742208 228.37109375 132.203125 C227.60023438 131.21828125 226.829375 130.2334375 226.03515625 129.21875 C220.16630815 121.88798667 213.82092553 115.02009408 207.37109375 108.203125 C206.58992188 107.3678125 205.80875 106.5325 205.00390625 105.671875 C204.32070313 104.9603125 203.6375 104.24875 202.93359375 103.515625 C202.35738281 102.91363281 201.78117187 102.31164062 201.1875 101.69140625 C199.0536134 99.94299594 196.96355533 99.10581745 194.37109375 98.203125 Z " fill="#FFFFFF" transform="translate(291.62890625,190.796875)"/>
<path d="M0 0 C4.42585765 0.01040821 8.85172141 0.01483428 13.27758789 0.01983643 C21.89218746 0.03041787 30.50675812 0.04738195 39.12133789 0.06866455 C40.33525864 4.16617214 41.37827052 7.71835426 41.24633789 12.00616455 C41.22829102 12.77831299 41.21024414 13.55046143 41.19165039 14.3460083 C41.16844727 14.91448486 41.14524414 15.48296143 41.12133789 16.06866455 C31.46001941 16.9087792 21.87878504 17.12316116 12.18383789 17.06866455 C1.73382135 17.01202489 -8.68687903 17.20335614 -19.12866211 17.56866455 C-29.71790421 17.93453584 -40.2812555 18.12343859 -50.87866211 18.06866455 C-67.32613411 17.98426444 -83.76010176 18.34321439 -100.20288086 18.7131958 C-101.74505783 18.74757751 -101.74505783 18.74757751 -103.31838989 18.78265381 C-105.24295794 18.825948 -107.16750107 18.87037256 -109.0920105 18.91619873 C-111.6874966 18.97537037 -114.28286133 19.02555005 -116.87866211 19.06866455 C-118.28659027 19.09271362 -118.28659027 19.09271362 -119.72296143 19.11724854 C-120.63173035 19.12635254 -121.54049927 19.13545654 -122.47680664 19.14483643 C-123.29794952 19.15446411 -124.11909241 19.1640918 -124.96511841 19.17401123 C-126.87866211 19.06866455 -126.87866211 19.06866455 -127.87866211 18.06866455 C-127.97841243 15.55730351 -128.01748394 13.0796304 -128.00366211 10.56866455 C-128.0075293 9.86612549 -128.01139648 9.16358643 -128.01538086 8.4397583 C-128.00527589 3.19527833 -128.00527589 3.19527833 -126.87866211 2.06866455 C-123.97393252 1.90729068 -121.09075136 1.80859915 -118.18334961 1.7522583 C-117.29236069 1.7314772 -116.40137177 1.71069611 -115.48338318 1.68928528 C-112.57356372 1.62313688 -109.66364902 1.56444219 -106.75366211 1.50616455 C-104.76041326 1.46270079 -102.7671678 1.41908095 -100.77392578 1.37530518 C-90.15154681 1.14996167 -79.53651477 0.9977798 -68.91148376 1.08802795 C-63.74295017 1.11469234 -58.61075606 0.99024877 -53.44995117 0.71611023 C-35.64353713 -0.21430735 -17.8241853 -0.04649132 0 0 Z " fill="#FFFFFF" transform="translate(530.878662109375,481.93133544921875)"/>
<path d="M0 0 C1.1171875 1.578125 1.1171875 1.578125 2 4 C1.3203125 7.234375 1.3203125 7.234375 0.125 10.75 C-0.26429688 11.92046875 -0.65359375 13.0909375 -1.0546875 14.296875 C-1.52261719 15.63492188 -1.52261719 15.63492188 -2 17 C-5.2704503 17.17474624 -8.54139134 17.33808559 -11.8125 17.5 C-12.70259766 17.54769531 -13.59269531 17.59539063 -14.50976562 17.64453125 C-20.63533484 17.94127163 -26.74023545 18.02209645 -32.87109375 18 C-44.61387093 17.9587996 -56.34439946 18.27125763 -68.08251953 18.57275391 C-78.46984124 18.83642793 -88.84726375 19.03138112 -99.23828125 19 C-112.14242393 18.96130132 -125.03681546 19.2249872 -137.9375 19.5 C-140.28970913 19.54839201 -142.64192267 19.59657008 -144.99414062 19.64453125 C-150.66281338 19.76056752 -156.33142697 19.87919474 -162 20 C-162.67084393 18.5995093 -163.33002827 17.19343042 -163.984375 15.78515625 C-164.35272461 15.00277588 -164.72107422 14.22039551 -165.10058594 13.41430664 C-166.45013783 9.79169028 -166.27846625 6.82891097 -166 3 C-135.70630807 1.9055032 -135.70630807 1.9055032 -121.5625 2 C-111.30828728 2.06698816 -101.07982122 1.78154752 -90.83346558 1.42724609 C-80.42554752 1.07304165 -70.03848957 0.94689737 -59.625 1 C-48.4724251 1.05455583 -37.36794441 0.83296071 -26.22583008 0.35766602 C-17.47758492 -0.01025395 -8.75443761 -0.11112826 0 0 Z " fill="#FFFFFF" transform="translate(569,517)"/>
<path d="M0 0 C0.33 5.28 0.66 10.56 1 16 C-6.07696229 16.82126126 -12.94465802 17.08884152 -20.0625 17 C-31.44181464 16.92414939 -42.79137053 17.21044768 -54.16040039 17.64453125 C-62.70980029 17.9471075 -71.24199075 18.02136051 -79.796875 18 C-93.82822332 17.9655986 -107.84719659 18.20681123 -121.875 18.5 C-125.41161197 18.57235414 -128.94823634 18.6438924 -132.4848938 18.71398926 C-134.65213842 18.75708737 -136.81935786 18.80148298 -138.98654175 18.84753418 C-146.3256161 18.99550509 -153.65941448 19.01747907 -161 19 C-160.67 13.39 -160.34 7.78 -160 2 C-116.36656217 0.90508725 -116.36656217 0.90508725 -103.3125 1 C-93.38234512 1.0719381 -83.47596339 0.76551833 -73.55340576 0.42724609 C-62.91375708 0.0680606 -52.2987085 -0.0486809 -41.65185547 0.02172852 C-33.03748877 0.05745391 -24.46103708 -0.23729677 -15.86108398 -0.73242188 C-10.40774702 -1.01986826 -5.39756866 -0.85625355 0 0 Z " fill="#FFFFFF" transform="translate(567,446)"/>
<path d="M0 0 C0.48598115 1.28014433 0.97047808 2.56085218 1.4543457 3.84179688 C1.72430862 4.55493042 1.99427155 5.26806396 2.27241516 6.00280762 C3.46709686 9.28216291 4.21156956 12.60368428 5 16 C-3.37154726 16.91507809 -11.67666902 17.19117992 -20.09375 17.28125 C-21.46464556 17.29912603 -22.83553582 17.31741224 -24.2064209 17.33607483 C-27.1224527 17.37503785 -30.03850006 17.4114823 -32.95458984 17.4458313 C-37.54921067 17.50001476 -42.14374763 17.55975829 -46.73828125 17.62084961 C-47.51079224 17.63111773 -48.28330322 17.64138586 -49.07922363 17.65196514 C-50.64910919 17.67285129 -52.21899445 17.69376068 -53.78887939 17.71469307 C-56.16507486 17.7462108 -58.5412769 17.77719017 -60.91748047 17.80809021 C-71.35165395 17.9447621 -81.7852521 18.10422865 -92.21875 18.28515625 C-92.89589554 18.2968774 -93.57304108 18.30859856 -94.27070618 18.3206749 C-100.09399915 18.42176416 -105.91725305 18.52498038 -111.74047852 18.62988281 C-115.2436377 18.69291381 -118.74681747 18.75468889 -122.25 18.81640625 C-123.25446167 18.83510269 -124.25892334 18.85379913 -125.29382324 18.87306213 C-132.529715 18.99993237 -139.76308529 19.01921715 -147 19 C-146.5898229 14.48805186 -145.9395605 10.50344713 -144.45703125 6.21484375 C-144.18479736 5.42070068 -143.91256348 4.62655762 -143.63208008 3.80834961 C-143.42349365 3.21159424 -143.21490723 2.61483887 -143 2 C-139.07559296 1.85310333 -135.15103897 1.71102447 -131.22631836 1.57275391 C-129.26212223 1.50266285 -127.29804972 1.42913364 -125.33398438 1.35546875 C-118.08553129 1.10240555 -110.85454518 0.97417948 -103.6015625 1 C-97.4938361 1.02153967 -91.39798747 0.96818003 -85.29296875 0.78125 C-84.2021122 0.74788795 -84.2021122 0.74788795 -83.08921814 0.71385193 C-81.57639786 0.66698461 -80.06358569 0.61985506 -78.55078125 0.57247925 C-52.37183108 -0.23040049 -26.18821281 -0.09895299 0 0 Z " fill="#FFFFFF" transform="translate(558,410)"/>
<path d="M0 0 C-3.48067828 12.49094475 -3.48067828 12.49094475 -6 16 C-10.91631226 17.02312756 -15.74780583 17.10502707 -20.74609375 17.03125 C-28.49174252 16.97608993 -36.22839771 17.0656551 -43.97265625 17.21875 C-45.11544037 17.24098633 -46.25822449 17.26322266 -47.43563843 17.28613281 C-50.97795413 17.35607468 -54.5202306 17.42775332 -58.0625 17.5 C-62.76168229 17.59569851 -67.46088764 17.68988276 -72.16015625 17.78125 C-73.28731552 17.8031691 -74.41447479 17.8250882 -75.57579041 17.84767151 C-81.79392736 17.9618881 -88.00749455 18.02376252 -94.2265625 17.99609375 C-103.20080609 17.96413145 -112.14747738 18.33146814 -121.11132812 18.73242188 C-128.83404386 19.03393342 -136.3164933 18.8531299 -144 18 C-146.58512583 12.57957487 -148.29702243 8.04560711 -149 2 C-139.58923767 1.18167284 -130.25564164 0.94462312 -120.8125 1 C-105.92193523 1.08359615 -91.04844469 0.73313231 -76.16333008 0.35546875 C-67.72014622 0.14532421 -59.28594751 -0.03151926 -50.83984375 0.00390625 C-44.66259169 0.02971548 -38.49862916 -0.06289665 -32.32421875 -0.25390625 C-31.5284845 -0.27846893 -30.73275024 -0.30303162 -29.91290283 -0.32833862 C-26.67396217 -0.43071491 -23.43517597 -0.53677872 -20.1965332 -0.64819336 C-17.7808935 -0.73011567 -15.36511416 -0.80496909 -12.94921875 -0.87890625 C-12.22216232 -0.90594131 -11.4951059 -0.93297638 -10.74601746 -0.96083069 C-7.00814986 -1.07092618 -3.63145268 -0.92014505 0 0 Z " fill="#FFFFFF" transform="translate(560,554)"/>
<path d="M0 0 C4.35015323 -0.14887959 8.69965056 -0.25312821 13.05163574 -0.33056641 C14.74300934 -0.36748147 16.43413637 -0.41860389 18.12463379 -0.484375 C31.41901792 -0.98781537 31.41901792 -0.98781537 35.05053711 1.83886719 C36.43575326 3.96268347 37.22651631 5.74212846 37.91455078 8.17626953 C38.26453125 9.31310181 38.26453125 9.31310181 38.62158203 10.47290039 C39.13810552 12.35258769 39.53881998 14.26345819 39.91455078 16.17626953 C37.22947039 17.07129633 35.57278334 17.32218375 32.80810547 17.3815918 C31.98070862 17.40153702 31.15331177 17.42148224 30.30084229 17.44203186 C29.40508484 17.45874435 28.50932739 17.47545685 27.58642578 17.49267578 C26.65473572 17.51345688 25.72304565 17.53423798 24.76312256 17.5556488 C21.73034691 17.62163961 18.69748323 17.68046679 15.66455078 17.73876953 C13.57014713 17.7822638 11.47574608 17.8258838 9.38134766 17.86962891 C7.31429982 17.91111825 5.24724264 17.95214526 3.18017578 17.99267578 C2.22761902 18.01141251 1.27506226 18.03014923 0.29364014 18.04945374 C-7.29858687 18.18705388 -14.88751199 18.18991186 -22.48072815 18.16786194 C-29.00204115 18.15597952 -35.5152756 18.24074045 -42.03466797 18.39501953 C-43.51922234 18.4283136 -43.51922234 18.4283136 -45.0337677 18.46228027 C-50.09019279 18.57634534 -55.14643838 18.69713004 -60.20263672 18.82080078 C-69.49891307 19.04594721 -78.78573581 19.26424475 -88.08544922 19.17626953 C-87.33080744 14.95215434 -85.99822107 11.68823206 -84.02294922 7.86376953 C-83.47509766 6.79513672 -82.92724609 5.72650391 -82.36279297 4.62548828 C-81.73050781 3.413125 -81.73050781 3.413125 -81.08544922 2.17626953 C-56.04314581 1.08216006 -56.04314581 1.08216006 -46.46044922 1.17626953 C-39.74917176 1.2390945 -33.06189647 1.06074387 -26.35473633 0.81860352 C-21.54539177 0.64504811 -16.73526433 0.50344857 -11.92463684 0.37062073 C-7.94916127 0.26083795 -3.97455944 0.13934119 0 0 Z " fill="#FFFFFF" transform="translate(511.08544921875,373.82373046875)"/>
<path d="M0 0 C3.92343582 0.01046415 7.84687879 0.0148456 11.77032471 0.01983643 C19.38818177 0.03037434 27.00600507 0.04730437 34.62384033 0.06866455 C33.99652884 4.02978624 33.24110122 7.6273302 31.81134033 11.38116455 C31.49552002 12.24354736 31.17969971 13.10593018 30.85430908 13.9944458 C29.62384033 16.06866455 29.62384033 16.06866455 27.9115448 16.68547058 C25.17882157 17.14320587 22.56179864 17.23232895 19.7901001 17.27398682 C18.60728958 17.29389175 17.42447906 17.31379669 16.20582581 17.33430481 C14.27998909 17.35943398 14.27998909 17.35943398 12.31524658 17.3850708 C10.96308323 17.40605996 9.61092565 17.42742475 8.2587738 17.44914246 C3.9013871 17.51720215 -0.45610129 17.57531176 -4.81365967 17.63116455 C-5.54918564 17.64062103 -6.28471161 17.65007751 -7.04252625 17.65982056 C-13.70180171 17.7448937 -20.36109622 17.82824061 -27.02047729 17.90463257 C-34.33272683 17.99044079 -41.64243508 18.10743257 -48.95271301 18.304245 C-52.40911598 18.39480404 -55.86565579 18.46041503 -59.32272339 18.51956177 C-60.84718669 18.55205904 -62.37144336 18.59674137 -63.89517212 18.65414429 C-75.01261545 19.06574019 -75.01261545 19.06574019 -78.31829834 16.64849854 C-79.69759336 14.82907114 -80.56090976 13.19503801 -81.37615967 11.06866455 C-81.75385498 10.19339111 -82.13155029 9.31811768 -82.52069092 8.4163208 C-82.74112061 7.66221924 -82.96155029 6.90811768 -83.18865967 6.13116455 C-83.42197998 5.35901611 -83.65530029 4.58686768 -83.89569092 3.7913208 C-84.05424561 3.22284424 -84.21280029 2.65436768 -84.37615967 2.06866455 C-79.04837025 1.38120785 -73.81190919 1.01459412 -68.43865967 1.06866455 C-62.90577695 1.12092364 -57.4107038 0.96227159 -51.88343811 0.71611023 C-34.5854012 -0.04072163 -17.31040259 -0.0512894 0 0 Z " fill="#FFFFFF" transform="translate(510.37615966796875,589.9313354492188)"/>
<path d="M0 0 C0.50660156 0.86238281 1.01320313 1.72476562 1.53515625 2.61328125 C2.05980469 3.46277344 2.58445312 4.31226563 3.125 5.1875 C4.67647679 8.07234145 6.1552493 10.98499335 7.59765625 13.92578125 C-19.07123904 15.02012858 -19.07123904 15.02012858 -30.27734375 14.92578125 C-46.65358984 14.79018824 -63.03480417 15.44956095 -79.40234375 15.92578125 C-80.44572847 12.71490183 -80.53627965 12.19946058 -78.9609375 8.98046875 C-78.26097656 7.93117188 -77.56101562 6.881875 -76.83984375 5.80078125 C-76.15792969 4.74632812 -75.47601563 3.691875 -74.7734375 2.60546875 C-71.9760782 -0.55596203 -70.45634529 -1.05462994 -66.40234375 -2.07421875 C-63.79792159 -2.19985307 -61.30749513 -2.23544677 -58.7109375 -2.1640625 C-57.19518259 -2.14313729 -55.67938959 -2.12484204 -54.16357422 -2.10888672 C-52.98949005 -2.0954422 -52.98949005 -2.0954422 -51.79168701 -2.08172607 C-47.85813359 -2.06936684 -43.93097532 -2.19673188 -40 -2.328125 C-38.82490372 -2.3651503 -38.82490372 -2.3651503 -37.62606812 -2.40292358 C-34.42753172 -2.50443125 -31.22917172 -2.60980741 -28.03100586 -2.72241211 C-4.11421294 -3.55227166 -4.11421294 -3.55227166 0 0 Z " fill="#FFFFFF" transform="translate(523.40234375,341.07421875)"/>
<path d="M0 0 C0 0.66 0 1.32 0 2 C-0.66 2 -1.32 2 -2 2 C-2.33 3.32 -2.66 4.64 -3 6 C-3.66 6 -4.32 6 -5 6 C-5.0928125 6.804375 -5.0928125 6.804375 -5.1875 7.625 C-6.52339574 11.52992602 -9.26339701 15.1316985 -13 17 C-14.43658823 17.11773247 -15.87821168 17.17690446 -17.31933594 17.20532227 C-18.21497253 17.22526749 -19.11060913 17.24521271 -20.03338623 17.26576233 C-21.49412567 17.29083107 -21.49412567 17.29083107 -22.984375 17.31640625 C-24.49514618 17.3475779 -24.49514618 17.3475779 -26.03643799 17.37937927 C-28.17838221 17.4227088 -30.32037388 17.46374249 -32.46240234 17.50268555 C-35.69509933 17.56150114 -38.9276115 17.62674726 -42.16015625 17.69335938 C-47.21882005 17.79535725 -52.27754972 17.88149939 -57.33666992 17.95733643 C-59.73577107 17.99576735 -62.1343651 18.04528764 -64.53320312 18.09716797 C-65.78552734 18.11537598 -67.03785156 18.13358398 -68.328125 18.15234375 C-69.37387695 18.17159912 -70.41962891 18.19085449 -71.49707031 18.21069336 C-74 18 -74 18 -77 16 C-78.85753812 12.76650772 -80 10.75586417 -80 7 C-80.66 6.67 -81.32 6.34 -82 6 C-83.03145371 4.69084721 -84.03542166 3.35917857 -85 2 C-83.05311688 0.05311688 -79.3613473 0.74454269 -76.69921875 0.68359375 C-75.93128494 0.66276733 -75.16335114 0.64194092 -74.37214661 0.6204834 C-71.81070796 0.55359554 -69.2491643 0.4950572 -66.6875 0.4375 C-65.81383789 0.41632111 -64.94017578 0.39514221 -64.04003906 0.37332153 C-42.69492258 -0.13864531 -21.34966267 -0.09952152 0 0 Z " fill="#FFFFFF" transform="translate(529,626)"/>
<path d="M0 0 C1.27133789 0.00966797 1.27133789 0.00966797 2.56835938 0.01953125 C3.8899707 0.04466797 3.8899707 0.04466797 5.23828125 0.0703125 C6.57729492 0.08384766 6.57729492 0.08384766 7.94335938 0.09765625 C10.14610439 0.12121502 12.34830713 0.15410921 14.55078125 0.1953125 C14.88078125 1.1853125 15.21078125 2.1753125 15.55078125 3.1953125 C16.21078125 3.1953125 16.87078125 3.1953125 17.55078125 3.1953125 C19.53078125 7.4853125 21.51078125 11.7753125 23.55078125 16.1953125 C19.03537156 17.09839444 14.96560632 17.32477857 10.40625 17.29296875 C9.63646317 17.2915538 8.86667633 17.29013885 8.07356262 17.28868103 C5.62842837 17.28310856 3.18338757 17.27056121 0.73828125 17.2578125 C-0.92512888 17.25279394 -2.58854045 17.24823165 -4.25195312 17.24414062 C-8.31774403 17.23314816 -12.38346558 17.2159026 -16.44921875 17.1953125 C-16.11293457 16.66276855 -15.77665039 16.13022461 -15.43017578 15.58154297 C-14.98528809 14.87400879 -14.54040039 14.16647461 -14.08203125 13.4375 C-13.64262207 12.73995605 -13.20321289 12.04241211 -12.75048828 11.32373047 C-11.54450204 9.35116235 -10.4280525 7.35117546 -9.32421875 5.3203125 C-6.75259455 1.03427216 -4.8308537 -0.06484367 0 0 Z " fill="#FFFFFF" transform="translate(482.44921875,302.8046875)"/>
<path d="M0 0 C0.33 0.66 0.66 1.32 1 2 C0.34 2 -0.32 2 -1 2 C-1.309375 2.8971875 -1.309375 2.8971875 -1.625 3.8125 C-3.60468364 6.9619967 -5.53107742 7.71521386 -9 9 C-16.04045601 9.68133445 -21.51235593 8.17977755 -27.5 4.4375 C-27.995 3.963125 -28.49 3.48875 -29 3 C-29 2.34 -29 1.68 -29 1 C-19.29821771 0.2390759 -9.73524288 -0.13500337 0 0 Z " fill="#FFFFFF" transform="translate(497,662)"/>
<path d="" fill="#FFFFFF" transform="translate(0,0)"/>
<path d="" fill="#FFFFFF" transform="translate(0,0)"/>
<path d="" fill="#FFFFFF" transform="translate(0,0)"/>
<path d="" fill="#FFFFFF" transform="translate(0,0)"/>
</svg>
